<mxfile host="app.diagrams.net" modified="2023-11-17T13:02:41.785Z" agent="Mozilla/5.0 (Windows NT 10.0; Win64; x64) AppleWebKit/537.36 (KHTML, like Gecko) Chrome/119.0.0.0 Safari/537.36" etag="xvUVya_9LZJODUkAyjTA" version="22.1.2" type="device">
  <diagram name="Page-1" id="1r0NaOBL1FA7gz7DOr0k">
    <mxGraphModel dx="932" dy="1294" grid="1" gridSize="10" guides="1" tooltips="1" connect="1" arrows="1" fold="1" page="1" pageScale="1" pageWidth="850" pageHeight="1100" math="0" shadow="0">
      <root>
        <mxCell id="0" />
        <mxCell id="1" parent="0" />
        <mxCell id="K1Z4dHXV3zyYNLdc2ulQ-1" value="Mailroom Management: Use Case" style="shape=umlFrame;whiteSpace=wrap;html=1;pointerEvents=0;recursiveResize=0;container=1;collapsible=0;width=310;height=30;rounded=1;labelBackgroundColor=none;fillColor=#FAE5C7;strokeColor=#0F8B8D;fontColor=#143642;" vertex="1" parent="1">
          <mxGeometry x="140" y="20" width="590" height="1010" as="geometry" />
        </mxCell>
        <mxCell id="K1Z4dHXV3zyYNLdc2ulQ-4" value="Login" style="ellipse;whiteSpace=wrap;html=1;flipV=1;rounded=1;labelBackgroundColor=none;fillColor=#FAE5C7;strokeColor=#0F8B8D;fontColor=#143642;" vertex="1" parent="K1Z4dHXV3zyYNLdc2ulQ-1">
          <mxGeometry x="160" y="70" width="140" height="70" as="geometry" />
        </mxCell>
        <mxCell id="K1Z4dHXV3zyYNLdc2ulQ-21" value="" style="edgeStyle=orthogonalEdgeStyle;rounded=0;orthogonalLoop=1;jettySize=auto;html=1;strokeColor=#A8201A;fontColor=#143642;fillColor=#FAE5C7;dashed=1;endArrow=open;endFill=0;" edge="1" parent="K1Z4dHXV3zyYNLdc2ulQ-1" source="K1Z4dHXV3zyYNLdc2ulQ-5" target="K1Z4dHXV3zyYNLdc2ulQ-20">
          <mxGeometry relative="1" as="geometry" />
        </mxCell>
        <mxCell id="K1Z4dHXV3zyYNLdc2ulQ-28" value="" style="rounded=0;orthogonalLoop=1;jettySize=auto;html=1;strokeColor=#A8201A;fontColor=#143642;fillColor=#FAE5C7;dashed=1;" edge="1" parent="K1Z4dHXV3zyYNLdc2ulQ-1" source="K1Z4dHXV3zyYNLdc2ulQ-5" target="K1Z4dHXV3zyYNLdc2ulQ-6">
          <mxGeometry relative="1" as="geometry" />
        </mxCell>
        <mxCell id="K1Z4dHXV3zyYNLdc2ulQ-5" value="Search for Resident" style="ellipse;whiteSpace=wrap;html=1;flipV=1;rounded=1;labelBackgroundColor=none;fillColor=#FAE5C7;strokeColor=#0F8B8D;fontColor=#143642;" vertex="1" parent="K1Z4dHXV3zyYNLdc2ulQ-1">
          <mxGeometry x="160" y="220" width="140" height="70" as="geometry" />
        </mxCell>
        <mxCell id="K1Z4dHXV3zyYNLdc2ulQ-6" value="create Package Receipt" style="ellipse;whiteSpace=wrap;html=1;flipV=1;rounded=1;labelBackgroundColor=none;fillColor=#FAE5C7;strokeColor=#0F8B8D;fontColor=#143642;" vertex="1" parent="K1Z4dHXV3zyYNLdc2ulQ-1">
          <mxGeometry x="170" y="350" width="140" height="70" as="geometry" />
        </mxCell>
        <mxCell id="K1Z4dHXV3zyYNLdc2ulQ-7" value="Package Receipt Notification to Resident" style="ellipse;whiteSpace=wrap;html=1;flipV=1;rounded=1;labelBackgroundColor=none;fillColor=#FAE5C7;strokeColor=#0F8B8D;fontColor=#143642;" vertex="1" parent="K1Z4dHXV3zyYNLdc2ulQ-1">
          <mxGeometry x="400" y="480" width="140" height="70" as="geometry" />
        </mxCell>
        <mxCell id="K1Z4dHXV3zyYNLdc2ulQ-16" style="rounded=0;orthogonalLoop=1;jettySize=auto;html=1;exitX=1;exitY=0.5;exitDx=0;exitDy=0;entryX=0;entryY=0.5;entryDx=0;entryDy=0;strokeColor=#A8201A;fontColor=#143642;fillColor=#FAE5C7;endArrow=open;endFill=0;dashed=1;dashPattern=8 8;" edge="1" parent="K1Z4dHXV3zyYNLdc2ulQ-1" source="K1Z4dHXV3zyYNLdc2ulQ-8" target="K1Z4dHXV3zyYNLdc2ulQ-7">
          <mxGeometry relative="1" as="geometry" />
        </mxCell>
        <mxCell id="K1Z4dHXV3zyYNLdc2ulQ-8" value="Package info and Resident info added to &quot;Pending Area&quot;" style="ellipse;whiteSpace=wrap;html=1;flipV=1;rounded=1;labelBackgroundColor=none;fillColor=#FAE5C7;strokeColor=#0F8B8D;fontColor=#143642;" vertex="1" parent="K1Z4dHXV3zyYNLdc2ulQ-1">
          <mxGeometry x="170" y="520" width="140" height="70" as="geometry" />
        </mxCell>
        <mxCell id="K1Z4dHXV3zyYNLdc2ulQ-24" value="" style="edgeStyle=orthogonalEdgeStyle;rounded=0;orthogonalLoop=1;jettySize=auto;html=1;strokeColor=#A8201A;fontColor=#143642;fillColor=#FAE5C7;dashed=1;dashPattern=8 8;endArrow=open;endFill=0;" edge="1" parent="K1Z4dHXV3zyYNLdc2ulQ-1" source="K1Z4dHXV3zyYNLdc2ulQ-9" target="K1Z4dHXV3zyYNLdc2ulQ-23">
          <mxGeometry relative="1" as="geometry" />
        </mxCell>
        <mxCell id="K1Z4dHXV3zyYNLdc2ulQ-9" value="Package Picked Up" style="ellipse;whiteSpace=wrap;html=1;flipV=1;rounded=1;labelBackgroundColor=none;fillColor=#FAE5C7;strokeColor=#0F8B8D;fontColor=#143642;" vertex="1" parent="K1Z4dHXV3zyYNLdc2ulQ-1">
          <mxGeometry x="170" y="640" width="140" height="70" as="geometry" />
        </mxCell>
        <mxCell id="K1Z4dHXV3zyYNLdc2ulQ-17" value="&amp;lt;&amp;lt; include&amp;gt;&amp;gt;" style="text;html=1;align=center;verticalAlign=middle;resizable=0;points=[];autosize=1;strokeColor=none;fillColor=none;fontColor=#143642;rotation=0;" vertex="1" parent="K1Z4dHXV3zyYNLdc2ulQ-1">
          <mxGeometry x="330" y="530" width="90" height="30" as="geometry" />
        </mxCell>
        <mxCell id="K1Z4dHXV3zyYNLdc2ulQ-20" value="If no resident, mark as unknown" style="ellipse;whiteSpace=wrap;html=1;flipV=1;rounded=1;labelBackgroundColor=none;fillColor=#FAE5C7;strokeColor=#0F8B8D;fontColor=#143642;" vertex="1" parent="K1Z4dHXV3zyYNLdc2ulQ-1">
          <mxGeometry x="380" y="220" width="140" height="70" as="geometry" />
        </mxCell>
        <mxCell id="K1Z4dHXV3zyYNLdc2ulQ-23" value="Package removed from Pending Area" style="ellipse;whiteSpace=wrap;html=1;flipV=1;rounded=1;labelBackgroundColor=none;fillColor=#FAE5C7;strokeColor=#0F8B8D;fontColor=#143642;" vertex="1" parent="K1Z4dHXV3zyYNLdc2ulQ-1">
          <mxGeometry x="390" y="640" width="140" height="70" as="geometry" />
        </mxCell>
        <mxCell id="K1Z4dHXV3zyYNLdc2ulQ-25" value="&amp;lt;&amp;lt; extend &amp;gt;&amp;gt;" style="text;html=1;align=center;verticalAlign=middle;resizable=0;points=[];autosize=1;strokeColor=none;fillColor=none;fontColor=#143642;" vertex="1" parent="K1Z4dHXV3zyYNLdc2ulQ-1">
          <mxGeometry x="310" y="640" width="90" height="30" as="geometry" />
        </mxCell>
        <mxCell id="K1Z4dHXV3zyYNLdc2ulQ-26" value="&amp;lt;&amp;lt; extend &amp;gt;&amp;gt;" style="text;html=1;align=center;verticalAlign=middle;resizable=0;points=[];autosize=1;strokeColor=none;fillColor=none;fontColor=#143642;" vertex="1" parent="K1Z4dHXV3zyYNLdc2ulQ-1">
          <mxGeometry x="290" y="228" width="90" height="30" as="geometry" />
        </mxCell>
        <mxCell id="K1Z4dHXV3zyYNLdc2ulQ-29" value="&amp;lt;&amp;lt; include&amp;gt;&amp;gt;&amp;nbsp;" style="text;html=1;align=center;verticalAlign=middle;resizable=0;points=[];autosize=1;strokeColor=none;fillColor=none;fontColor=#143642;" vertex="1" parent="K1Z4dHXV3zyYNLdc2ulQ-1">
          <mxGeometry x="200" y="300" width="100" height="30" as="geometry" />
        </mxCell>
        <mxCell id="K1Z4dHXV3zyYNLdc2ulQ-31" style="rounded=0;orthogonalLoop=1;jettySize=auto;html=1;exitX=0.5;exitY=1;exitDx=0;exitDy=0;entryX=0.986;entryY=0.603;entryDx=0;entryDy=0;entryPerimeter=0;strokeColor=#A8201A;fontColor=#143642;fillColor=#FAE5C7;dashed=1;dashPattern=8 8;" edge="1" parent="K1Z4dHXV3zyYNLdc2ulQ-1" source="K1Z4dHXV3zyYNLdc2ulQ-20" target="K1Z4dHXV3zyYNLdc2ulQ-6">
          <mxGeometry relative="1" as="geometry" />
        </mxCell>
        <mxCell id="K1Z4dHXV3zyYNLdc2ulQ-32" value="&amp;lt;&amp;lt; include &amp;gt;&amp;gt;" style="text;html=1;align=center;verticalAlign=middle;resizable=0;points=[];autosize=1;strokeColor=none;fillColor=none;fontColor=#143642;" vertex="1" parent="K1Z4dHXV3zyYNLdc2ulQ-1">
          <mxGeometry x="350" y="330" width="100" height="30" as="geometry" />
        </mxCell>
        <mxCell id="K1Z4dHXV3zyYNLdc2ulQ-34" value="View Package History" style="ellipse;whiteSpace=wrap;html=1;strokeColor=#0F8B8D;fontColor=#143642;fillColor=#FAE5C7;" vertex="1" parent="K1Z4dHXV3zyYNLdc2ulQ-1">
          <mxGeometry x="180" y="780" width="140" height="70" as="geometry" />
        </mxCell>
        <mxCell id="K1Z4dHXV3zyYNLdc2ulQ-12" style="rounded=1;orthogonalLoop=1;jettySize=auto;html=1;exitX=0.75;exitY=0.1;exitDx=0;exitDy=0;exitPerimeter=0;entryX=0;entryY=0.5;entryDx=0;entryDy=0;labelBackgroundColor=none;strokeColor=#A8201A;fontColor=default;endArrow=open;endFill=0;" edge="1" parent="1" source="K1Z4dHXV3zyYNLdc2ulQ-2" target="K1Z4dHXV3zyYNLdc2ulQ-5">
          <mxGeometry relative="1" as="geometry" />
        </mxCell>
        <mxCell id="K1Z4dHXV3zyYNLdc2ulQ-13" style="rounded=1;orthogonalLoop=1;jettySize=auto;html=1;exitX=1;exitY=0.3333333333333333;exitDx=0;exitDy=0;exitPerimeter=0;entryX=0;entryY=0.5;entryDx=0;entryDy=0;labelBackgroundColor=none;strokeColor=#A8201A;fontColor=default;endArrow=open;endFill=0;" edge="1" parent="1" source="K1Z4dHXV3zyYNLdc2ulQ-2" target="K1Z4dHXV3zyYNLdc2ulQ-6">
          <mxGeometry relative="1" as="geometry" />
        </mxCell>
        <mxCell id="K1Z4dHXV3zyYNLdc2ulQ-14" style="rounded=1;orthogonalLoop=1;jettySize=auto;html=1;exitX=1;exitY=1;exitDx=0;exitDy=0;exitPerimeter=0;labelBackgroundColor=none;strokeColor=#A8201A;fontColor=default;endArrow=open;endFill=0;" edge="1" parent="1" source="K1Z4dHXV3zyYNLdc2ulQ-2" target="K1Z4dHXV3zyYNLdc2ulQ-8">
          <mxGeometry relative="1" as="geometry" />
        </mxCell>
        <mxCell id="K1Z4dHXV3zyYNLdc2ulQ-35" style="rounded=0;orthogonalLoop=1;jettySize=auto;html=1;exitX=0;exitY=1;exitDx=0;exitDy=0;exitPerimeter=0;entryX=0;entryY=0.5;entryDx=0;entryDy=0;strokeColor=#A8201A;fontColor=#143642;fillColor=#FAE5C7;endArrow=open;endFill=0;" edge="1" parent="1" source="K1Z4dHXV3zyYNLdc2ulQ-2" target="K1Z4dHXV3zyYNLdc2ulQ-34">
          <mxGeometry relative="1" as="geometry" />
        </mxCell>
        <mxCell id="K1Z4dHXV3zyYNLdc2ulQ-2" value="Actor" style="shape=umlActor;verticalLabelPosition=bottom;verticalAlign=top;html=1;rounded=1;labelBackgroundColor=none;fillColor=#FAE5C7;strokeColor=#0F8B8D;fontColor=#143642;strokeWidth=2;" vertex="1" parent="1">
          <mxGeometry x="70" y="520" width="30" height="60" as="geometry" />
        </mxCell>
        <mxCell id="K1Z4dHXV3zyYNLdc2ulQ-19" style="rounded=0;orthogonalLoop=1;jettySize=auto;html=1;exitX=0;exitY=1;exitDx=0;exitDy=0;exitPerimeter=0;entryX=0;entryY=0.5;entryDx=0;entryDy=0;strokeColor=#A8201A;fontColor=#143642;fillColor=#FAE5C7;endArrow=open;endFill=0;" edge="1" parent="1" source="K1Z4dHXV3zyYNLdc2ulQ-2" target="K1Z4dHXV3zyYNLdc2ulQ-9">
          <mxGeometry relative="1" as="geometry" />
        </mxCell>
        <mxCell id="K1Z4dHXV3zyYNLdc2ulQ-3" value="Actor" style="shape=umlActor;verticalLabelPosition=bottom;verticalAlign=top;html=1;rounded=1;labelBackgroundColor=none;fillColor=#FAE5C7;strokeColor=#0F8B8D;fontColor=#143642;strokeWidth=2;" vertex="1" parent="1">
          <mxGeometry x="770" y="520" width="30" height="60" as="geometry" />
        </mxCell>
        <mxCell id="K1Z4dHXV3zyYNLdc2ulQ-11" style="rounded=1;orthogonalLoop=1;jettySize=auto;html=1;exitX=0.5;exitY=0;exitDx=0;exitDy=0;exitPerimeter=0;entryX=-0.007;entryY=0.614;entryDx=0;entryDy=0;entryPerimeter=0;labelBackgroundColor=none;strokeColor=#A8201A;fontColor=default;endArrow=open;endFill=0;" edge="1" parent="1" source="K1Z4dHXV3zyYNLdc2ulQ-2" target="K1Z4dHXV3zyYNLdc2ulQ-4">
          <mxGeometry relative="1" as="geometry" />
        </mxCell>
        <mxCell id="K1Z4dHXV3zyYNLdc2ulQ-18" style="rounded=0;orthogonalLoop=1;jettySize=auto;html=1;exitX=1;exitY=0.5;exitDx=0;exitDy=0;strokeColor=#A8201A;fontColor=#143642;fillColor=#FAE5C7;endArrow=open;endFill=0;" edge="1" parent="1" source="K1Z4dHXV3zyYNLdc2ulQ-7">
          <mxGeometry relative="1" as="geometry">
            <mxPoint x="770" y="540" as="targetPoint" />
          </mxGeometry>
        </mxCell>
      </root>
    </mxGraphModel>
  </diagram>
</mxfile>
